<mxfile host="app.diagrams.net" modified="2023-08-02T06:58:40.920Z" agent="Mozilla/5.0 (Windows NT 10.0; Win64; x64) AppleWebKit/537.36 (KHTML, like Gecko) Chrome/114.0.0.0 Safari/537.36 Edg/114.0.1823.82" etag="1itqQsnw1D2qUp9iEZxA" version="21.6.6" type="github">
  <diagram name="第 1 页" id="w_IZh_zdJ2YnemDov3yS">
    <mxGraphModel dx="1279" dy="725" grid="1" gridSize="10" guides="1" tooltips="1" connect="1" arrows="1" fold="1" page="1" pageScale="1" pageWidth="850" pageHeight="1100" math="0" shadow="0">
      <root>
        <mxCell id="0" />
        <mxCell id="1" parent="0" />
        <mxCell id="uFrEVuctdgkB2kQyFH12-2" value="导入期需求量计算逻辑" style="text;html=1;align=center;verticalAlign=middle;resizable=0;points=[];autosize=1;strokeColor=none;fillColor=#FFE599;fontSize=20;fontStyle=1" vertex="1" parent="1">
          <mxGeometry x="160" width="220" height="40" as="geometry" />
        </mxCell>
        <mxCell id="uFrEVuctdgkB2kQyFH12-5" value="" style="endArrow=none;html=1;rounded=0;" edge="1" parent="1">
          <mxGeometry width="50" height="50" relative="1" as="geometry">
            <mxPoint x="170" y="219.8" as="sourcePoint" />
            <mxPoint x="480" y="219.8" as="targetPoint" />
          </mxGeometry>
        </mxCell>
        <mxCell id="uFrEVuctdgkB2kQyFH12-6" value="" style="endArrow=none;html=1;rounded=0;" edge="1" parent="1">
          <mxGeometry width="50" height="50" relative="1" as="geometry">
            <mxPoint x="170" y="220" as="sourcePoint" />
            <mxPoint x="170" y="50" as="targetPoint" />
          </mxGeometry>
        </mxCell>
        <mxCell id="uFrEVuctdgkB2kQyFH12-10" value="导入&lt;br&gt;点1" style="text;html=1;align=center;verticalAlign=middle;resizable=0;points=[];autosize=1;strokeColor=none;fillColor=none;" vertex="1" parent="1">
          <mxGeometry x="195" y="220" width="50" height="40" as="geometry" />
        </mxCell>
        <mxCell id="uFrEVuctdgkB2kQyFH12-11" value="导入&lt;br&gt;点2" style="text;html=1;align=center;verticalAlign=middle;resizable=0;points=[];autosize=1;strokeColor=none;fillColor=none;" vertex="1" parent="1">
          <mxGeometry x="235" y="220" width="50" height="40" as="geometry" />
        </mxCell>
        <mxCell id="uFrEVuctdgkB2kQyFH12-13" value="" style="curved=1;endArrow=classic;html=1;rounded=0;" edge="1" parent="1">
          <mxGeometry width="50" height="50" relative="1" as="geometry">
            <mxPoint x="190" y="210" as="sourcePoint" />
            <mxPoint x="430" y="200" as="targetPoint" />
            <Array as="points">
              <mxPoint x="240" y="200" />
              <mxPoint x="250" y="80" />
              <mxPoint x="420" y="70" />
            </Array>
          </mxGeometry>
        </mxCell>
        <mxCell id="uFrEVuctdgkB2kQyFH12-15" value="" style="rounded=1;whiteSpace=wrap;html=1;fillColor=#FFE599;" vertex="1" parent="1">
          <mxGeometry x="215" y="200" width="10" height="18" as="geometry" />
        </mxCell>
        <mxCell id="uFrEVuctdgkB2kQyFH12-17" value="" style="rounded=1;whiteSpace=wrap;html=1;fillColor=#FFE599;" vertex="1" parent="1">
          <mxGeometry x="251" y="120" width="10" height="100" as="geometry" />
        </mxCell>
        <mxCell id="uFrEVuctdgkB2kQyFH12-19" value="1. 在生命周期表中，维护品类-厚度-导入点（日期）及比例" style="text;html=1;align=center;verticalAlign=middle;resizable=0;points=[];autosize=1;strokeColor=none;fillColor=none;" vertex="1" parent="1">
          <mxGeometry x="445" y="40" width="330" height="30" as="geometry" />
        </mxCell>
        <mxCell id="uFrEVuctdgkB2kQyFH12-20" value="2. 品类级的需求量=品类" style="text;html=1;align=center;verticalAlign=middle;resizable=0;points=[];autosize=1;strokeColor=none;fillColor=none;" vertex="1" parent="1">
          <mxGeometry x="450" y="90" width="150" height="30" as="geometry" />
        </mxCell>
        <mxCell id="uFrEVuctdgkB2kQyFH12-24" value="" style="shape=image;verticalLabelPosition=bottom;labelBackgroundColor=default;verticalAlign=top;aspect=fixed;imageAspect=0;image=data:image/png,iVBORw0KGgoAAAANSUhEUgAABMEAAABHCAYAAAAOclDbAAAgAElEQVR4nO2dbUxU177wfz45XxiTfoFA+DAC4c20YsAmfW6G2h5vBnzA+6ExjfSRRKjHQmNyire1pbamhKat5Vh74TYxYi1VE03xaUwTKxNhcjjaMrkxqRCwRgQCOIkEAl+aCJ/qPB/2y+y9Z88bgzIz/H/JRNx7r/22/mvttf7r/7LpypUrgSdPnvDkyRP+/PNPtL+NP0EQBEEQBEEQBEEQBEFIZTY9evQoEOmAa9eu8f/GX3hW9yMIgiAIgiAIgiAIgiAIq6L2f+fwn/uKbPf9r2d8L4IgCIIgCIIgCIIgCILwzBElmCAIgiAIgiAIgiAIgpD2iBJMEARBEARBEARBEARBSHv+En+RLNpPleKKeMwyvV8Nc24OyN1Cz1En/ksj+KvKqZsfp+r8IgDuxkpaywzHpgVxvh9DGS4N0XYH2LGVgfpMfNr/c7fQcwA+73jI1FO++/RkM4day3EOqO8zBGOdLdHx3n28QGFNBWfcqHW1mUOtJXBxmHMoMo13hIOeDNpPOfFHk2G1HTi1/y/4edtSnyHtQSszFmwzyY7yzhxRj/N7Rzjoeaz+T6mfOozvRK2TMM+uvKsYbyrc+9PrJEIftGMrA/UZhv3KfTm9Ixz0YHPfyr3tnzc+n/Gel+h4b5GdrQ4uSnvW+7po6H2hirltRimcu4Weow4uv3cfryZr2faHmuXS7jxR5GUjscq6iwupu5SnMHczU3Nh6kVIAzZTmAvMPZbvmRAHqtzwmCnpj58Cm3HvyIC5Rbyrfr9SR0J6swolmIrNJJ4og1QN80TZQd3RSurU/yU0YE4m4nk/uSv4x6CuvpKenBEOzhv3BZUnB3Y8TI9386zZ4VTeeX0Fh+YewAE7GQ2dHBXkOIAlZuaA3Exc2Q6cRyvg0pJ6RAaHWhXlmb98M+fmCC//C37efm9owwwSw7Zju4lzbiaubPB7l+J8P0t0fLXMfl0hGUbpdH6RyMppcx8E2CjOLG3XXc6AW9vn5Mwpp1LmhoP9ZeAsK6d93v4d5Nc4cWU7cDUup4xy82kTToFhr1TdzK7thrZpxCRfaptmGf+Ck9ZTW+E9v7IrpH9WlZuW/69eXjYO8dWdGU2ZHV6BtfHqrjB3M8FJhzYJgYLcDMhxsDMnE2eOA2d2hPeWu4WeA5nACpcv3jdPgrQxhe0YRTsmi0O7s3AC/vlFZubtDlLI364eN+rn3B3LvezYypn6TIyLS9r2AW37V/ejTNKyaG81LCBFYt7PwZC6DPbdyndJk49ler96wGBuBgUhJ1ph+s76K3WSQhbU49oPZOK0OUdhTYnSzuNtR6tSTG9cWVgtsS5MhrRRO3ZspacqA+aX+Px8Yot4utxEk70NgyabwfagL/aOjfP2+cW43lFhTQmtbgfgZOel4VXNHaWOUpukaPu5W2jf7QCWuWgop99bHLKljxfHxvk8XHvQ7pOlmAyHVq8ES5glOt7zk99ajmt0hIMjmYp1zUZk7jHnzo9Aazl12zMpHAjucu924oxFQIXw3LlP1Zwy4HKVw8GOIc6pu8JaI+ZuYX8ZQCatpyppHRun6r1x2luzmAFlgpWThSvbrPA5Zzg3ELTqG7BrjHZKUZtJWlkpA6dKlb+TbMIWDld9JQP1sR1bWJ6JE/DlOBk4ZVGQGZ+d8Mo1p0kpFQH1/QWtsrR2FWqNZrQ2qztaQu9XQ1TNRbcEO/jeMu2nsoAsILSuZjzDvE0FZ9xZuFmUdk0c9Qe60pSxRaZrKhiwfuRD2sgibR3QfqqU/TWL+ACyVcWlBb91QxzyslGJte4iWW/ankMdHG2outuxlY/rM4OKgdxMPq5SFBh+MnBlK4PGjoEHTM8B2FtYFZZn4sx2wMKScpymdFpYomNg2XS9ATsllQFnThYut9JH+xeW8M+DMycTZzawsIQvgoJMZ8zcz7m3Zwa3x6L8yHbgZBmf188vIddzsLPKqSykjK7EcDIDuRkcqFeUID6vn19wKhPHBT9vWxV6z5okkoXC8kz1euo54kRR5oXiB0WhlbuZQsu+gtwMpu/YTHQ2oiysBeEmm1YvhUjMLeKnFFeZgzOtrE3/Ob9sW/9ifZTFTvV76RuNTwEGWRwwGJq46rfivpPAHFLqKLVZ57bvLFPGD7+AXmZqfgWIRUGnEWwP5JRyRp8XLivn0cb9c8uQnYlzYSnMecysXgkWZiAaO5m0ahNewwA4ZCCbqsT6fkIsY5ycUZUHrvpKdTVbVcSQRpZyz5q5hxx876HS6E+VWxq9RfE0Ns7b85m2K5RtHYuKggzUlcb7+r5IWnc7pZDfOxJZIZeC7pAasVuCBa16fjl/nzYI7ZhjeH67VXD7SbfRSiTYroIo7dbvHeHg+SG8Ie6Qi7S9F7yXEKUnxmOyaD9VabFIUa6p4GDnDvBKe47LmkhZGFAGhuQ4CVpx2lsAFdZUcCbHT9V7Q8BmDm0nBmsi8/aY5CWcK16aE2vdec8PBV0abRVQ2qKA2SV9YCPV3Z37fJ6jvLe6o1uZee8+B+88VPbt2MpAvQPml/FGmpTnbuFj7b1nZ/JxaybML+FbyMSVnUmr3v86OFCl/O33+s0TpLlFzul97mYOtWZSlw3+gfu03VH71mzF+qstzLsrzN1MQU6Gcv55g0JCX2BaouPGCu7GrewE/DfuR7UG8o/YKc02k18VbqylWA651IUmV30FPVUOVVYcuKqCcuMfWcSbm0VrXAPzp0iyyIJhQu0bXYLczbh3l7A/R92drZ6/rJSe1mA9+EcfqLKRxYEDdhOtYD3UVZXYWG6u4JtbDDvJ3lCysCY42LUjK9TSLSeOZ5xTF5RaS3FlO9dGEVZWysc5yyGb/aMPaEt7N2qzJaKRwhqn2iaWYftW2rebS4bvLzfrHiqMjdNBKa1lmbS2bmF6tXW1oesoHUjStm+hsGYLu4AZz8MQha3eHhb8fN6xxC7dondYH5MYDSZiZRVKMPMkMFZc9eXKH9lODgDKatMiOzWrirSxBIvz/dy5T5U+CbabxIkVWKIYlSG+S0OKMsy0L1TZ5W5UGpOmHPN7/fjdTnPdGJS3vktDtHmGqfKYr+kbW8JVlhn8N4ISU5kkGtAUdylIzJZgmquqgcLyTJwLy/izHcq/ZdEtpmK3JFqk7b37q7IOiWZa7NPiHmZr/x8K9gUxWFxsLMxWkNHqz1VfyUCVn7cvok6gl/HPATnGo1bwL9gUnl/B7y5loBGqzsdpHZCAvKQvq6w743uKdZFoA9bdlGeYt0c2AxkU7MhCf7WqQokcB+4dWcECcyt49YlIFu3qAoLfO8LnI9pBj5limfbdWUAGrjKlH/OP+ukFBtdaCZi7hY8NCxlBGVnCN6Za/l5S3OoK5zMUi5ucLQyueX0s0taxYnCBGza5wPku+nEejRbDdf1IBlnQJx9j41ykhDNHlUWr3q/8DAIF5arb1dg4n98wtFH9PhaVxcMQDAqAi88iTl9qy0LCZGfgVF2XrfjHlvCzzHRMJ1qk7aJDWajMdiYepmVs3MZtdaOjLQ6Df0xpU5r1rWaNG66c/m1e8KsulIvQWElrmZMzpzLpvfQg1G09GlJHqU2ytn2dzbgbS2jVvkUs4TV9hwyWjfPLTAG7AH0ekADPzB3SOPkvrKnAVZbmlmDxok2Sx8apGs0KBsZnKwOnKmmVgL6rxqtb9EQP4qwxPe+ndz6TOj34dhbtbkKtkoznNVkwaS4MWxkoA0bvUzW6lYH6Sgbqbay9YrmpFLIIi9USTHeL0VE6O0Xp6MA5v4QPJ/trNls6RZWEFIU21iF2ShQc1B2twDkGpnrVLMRytWd6rFiGhchaFu2G/+9srGTn6Ea36HzMuQ7VBVxTRuQaE07YDdLUBBch2y2WnNlW9+H7HGQrA/VZuLUvTKwudSZilZd0ZzV1ZyxrZz1pz9SdjVl3U3OPITeTA9sNSndd4ZvJTtN2f9AiJlcd1OaAbz6DAjWGFHOPodygLAFlYKye80DN5rAWXati7iEH31uycffPxFUGLCzhJwv3Dgc7c1bw48CZ7eTMU46TGH5xxiYMQZKwrrKwY6u+8OPPyeJjdZLiu2SwQim33GsYwrtDr0+cvlSUhYRYWDLF5LFSWFOhWMZGirejkevQv8Ouqi0U3olBeW2IMwgErVBynLQ3GuVxmV9uPEwgmHuq46DuqNaolvCN+jl3B8Ual6A1rpXCHVv4uF5Velvq0Ht+iGl1Ebeuvpy6qiV6B2xiOEodpSfr3fYByCDfbiHHMJ7zj/m5bCNXQatI7R7UkCg4qDtQgQuU8AyrID4lmO2EPWjRZV1B8V0aos2mkUx5hqkaSV1Xr7Cs5v3oK1FLdLynWgIZV/ZUS7HCmgrOqCbxYkWSGKEWPYZBj+Zq43kINZmhAyFLjCojipvWMr3eFercmaaBlKu+EiXU2zK9l5ZwHa2kbmycqvMGJY5RERpO0ZYixBMTzIjS2S3TO7KM0w2wzODoMnVuJ25P0JIjX5sERFUi2ltehVjdhWC0dlEUX4PlFcoELi7U9r3gp3feSV2ZOgksU5NgJIsb1npiUWr4c5z0nMoMqVPfpSElBkzYpBYRLHyMFrdxKGE0osvLBiWOumubi0Phb1z02TB1Fwz67Z9fgflF88BVd4Hz0xZuzDS3yLkbwG4nrvpS6ljGP7aCjxXIUfoev3ecjlHl8PztTurKHCixC4N9UTCGUywxX4IB201KEH2gukTHJYKudwvL+FFXpucX+WV0GUaX2VmViTMnC3duuDhhDly7t9rKT6wDYPOYy8iyZUFjvUkSWZhbxqcu/pATtAhrm9tCzylLW44xdmnQ/djoCqa29ZjHOhtJFhJDj72T7eTjVoe9FVGOGmMOYH4lyqR2M4eqDO8lZosQB64yNczIJT8zLPKLZf/+eidOMvDfSE0PiLUnk7qqZQbvaPGNbCxfcrNoP1Cqu/nCMn6yONBoUXSzgm9MbfvZmdTVw0xInDCpo3Qiedo+KG7vzuBiZXZwDu5fWApN2qJhdOlX0eJIB919Y7m+PauyBNM+YiErO+qHz85tSJ8Uj41TdR7dTNs3ihI3J42UYfG9n1D3yUJNQ2pgyuBqJ6wFVss6bQJt+Fv9qNQdrcTl9SuNN4KCyjjZOuexnFebDKgKmXN30vsDEqslmNHiTjd5XfAzOIfqNg1TI0v43WGswayWYMbz2/YpDg61VkbMYKu136BVl7E9mleJI64Y52gThWV6Lz5kZrcTY0KQOnc5PYgiTFc8a9ZE84v4cjKVhCmex2p/Cf45mM5Zonce6tyhfSQ8VrLYlTkoANPH3N1YSWuOn7cHHGq2unBY+4XY5WVDEkfdaUR7X1oZjY1Td4tcvLiiupdlQs4yF+e1TEfYx16yy4A3t8i58+A8Vapk8zuvfHPcakwZ//xKMLh5DmAdQFpcGY1YFzfMrrCW96+tGI8twnZFORLpfXujfhOX8c8v2gdD1wL1R8EcByqZSRJZmHtI23nUxSYALdsyCVhgZ+hKUx3boNuR2EiykCB37lM1l4Xb+s5BzTDqgPkVegf8zMzFkKhCD2GxjG/MgasMXNuz4E6s87cVZu7YhbfIYmc96V8fMeAf8+Obd+B0Z+LKdvJxY6a6+LcSmhF7bpGLAw78OcvMjMDOo6W4yjAnjsgxJHnoUGPvRkTqKC1Iqra/REeHTYboBX/kLI5zS1y+BPlV6rVznEGL5NEV8qtiuHQEnqE7pBovByAX1RXBz8U7cGAVFiPpwqqCqSfNoD1dURQgg+pkzOQOGckSLEL2MwWLS06Mit9Cu+DCSYdZcRjNEszpLmdguzKBHqzJpI4M9rcqgWmVTJrGOCcPuTzmpNVdwqGRYc7NZaiZyWBnqxKg2RatrhaUWFLKqvoS584/ZEaL2aYr64IWmZcjtq9I7pBWlvCNOXGOqumu9e2aO1kJzlgyq6U7VmsiVgzWf4vsVOPNnJsD5u4ztWNrqOKxfCsDRzPwjYUGbzVZDqpo3yPX6AiXc8ppZZy3551B5Ys6gU9cXtKceOrOOBALY/HhuzTERdOWjVV3U3OPmcpdMQXkdmpZAL96EIzbketUFIIh/cdm3DVOduZkqBOVDPargec1dzdXfQlOzRU022bsEeJiHrSW0d6hnqo8wnhEc3X3z0P+doBlfCMZtLeWhJ1E+QeGI64qxx8M3Yw5DpQR1bLIZgFyvUgKWQCMscV8l/xMqwqrgnInO3PsS/hH73MupB6XlZiN2518vN1hUFSpLlrqfv+Cku2rECJaJWwkWUiYcBPc3C3sP5qpZKA/H0um6mBoB7/3AW0jmfSUOXGWOTmUuyjhWtaEZXw3HipjxpxKXGXgVCf91iy7GlO6S1oWO9VtpvaxI92SPAgxk/Jt/zHeO48pzMmkzu1QswMr6LHmWca/4FiVS+TTV4LlqumM9dUmJz1HtYdwcuaUut04YU3CYLVPC6uFV4hSLI0s5JKLMHEfbOLEuA5U4hwYV/4ToyWYTsyxcsyEKkeTb8JmxhzrR7n/laArYoT3YFoBHlsCowLNpHR0ULc7i3OjWcqgdX6RNkN2TsAmCLbKDsV1wjevXFuPkWC81lr3PfOPOecZCrPzMec6htfqSqmN1ZoIpV/syKlU40Yu03sjUh/oUD6OY+O0jWYxUJZBfi4UllfwMQ84OKK4Zfm9S0zFOhBUFSnPVF5SkYTqLjQ2Ygi5Unca03OPg/drt7ILwGOm5xdh3sF+fbV0kRkgv0px79eyKUH0ZB/KtbTx2hK/xBHHcHp+GcocON2l6ndWsWJwZjtUd5sHDM4BZLDrQKmSfTL208dG7hbadwcHx86qrbRv15RCDly7NZnTLIucuGJKsLK+PDtZMCuJXPXluNBijWltc5zL8wAOdlYp2Rd9o6F34z0/rIczcDeWhy5ejdlYsq0laSoLYbHEqLVNGqNn6Mxkv2FBMZwlv7uxNJihzfMYeKwsUJY5qDsQa2KLTFpbK5QM67b3soHINWRIPVoests7ukRrWXCxyDcab/tQXdXDKKvDI3WU0iRt218DtDm40Q14YQnfvCOi1X84VqUEC5sNysZKRlkNXGJmDvJBMdk2ZYpRP7JppOyJ5/0EMQw2tHexYysD9aUMnMqSjHKJkLuFHlVR5aqvwP9VPK6lDpz4+TyMxaKd66r52qpVQjz3Swq7v5o6Xwc7d4D3jsGH213OgNsuycMKlzuGDTIerl/YzKFWpS5DBwShViN6mSplQq65ZQWt9tQYbfVKthNr2t/Q+o3iDmmRtUNzwedMndhEzwZ3o2Y5aAl0HtJ/OnCVb+acTdDlghwH+ipQWSntoyP0LpTjKt/MTI4DJxkhSpHorF5eNgprUXd2CxEh/aTUnUK2k49bjbE4wiuupu4sMqW7rQTdWtzbSyFbcwOLfh4NJdYlYa0Qwt6HGvu1/aiW2lzJQKVZKjAXjDe2K47zxsXcQy7e2AyjixQA03MrQAa75h3MjCwxnevkTJkDWOEXzyLeVLCYeKaysMLFS+P8gvLugjHfgt9h//wi3jvKtuhWWMbsdWoGaG1XWSk9jTw9RVg6ykIkDBadhTu2sCtnmRmPpQ3r47UlLndEnmMU1lQE+9GLwX7Te8PP/jKnntji7XCBtece8vlXS3Z7QogehzBNmFvGN7aEk2V+ubFMvroYoHPHT29Vph5OJZ5FCAByMw2u7cv4Rpcif++kjtKDZGv7xnPt2MKBqkzFqjkR5lb08aJ/dImZnExV2RefRdhTjwnmveFnP8t4gUOruVgKEs/7Mf7t945QZbSSMQbFV93oxB0yfgrLM4MJGHZsZSBa5h/12IIchymIq+mcplXT0I+Tef8yvpENUGfhAvtjVuq5GytpPVqJM1zcsIhoroROZvSyFpeGkMnaY85d9OPaDRyoZCAb5R4NsfiUGG3KAP3MKac54KIao0zJgmWjwDNYA65W1jYiIUpB3VpwHN/2UpwDRve1cgZyrO8qi51ly0F3ZVUZc+6iH9fRcloB36VFZcLHMv6crQy4NQWluurqLlfdk0s5o/bVdQcyeXsV8rKR6nFVdXfDehZzW3I3VtJaX6kvBJ2bA/duVaG1IetOiW0HwIKfyxeXQl3goqK44O8fG+eyuiUuS7AdW/UxTPxWCAq6kiPbyZnW5YSsvZzldvFNIlsnTM1l0H5Uc+cc4WKOU7Ec3Q6981r8yPgUfM+e9ZKFx0zd0azONlOYm6VmmVyFRUjuFtoPONWVez9vdyxz4FSp4iniXYLtTlxlpQy0Oui4GD3z3MaVhfgp2O6krgzY7mB6FYp/o2z4LlnGP3MP+dybqewvK+WMbf0Fx2h+rx9fjgPn/CIXPSsUNJawPwd8F4c5xxbaD2TinF/i8wjZ7NKHRc7p357NIXPkQj0GE0CGvqgcM1bX9tws2hudwCIXQxQWUkfpyPq3fQ3F4sypxRRbWA5VhBnihHV0PIzcD+ttQ/GS8jJs8jqK9fu06dGjR4FIB1y7do3/N/5CjKcTBEEQBEEQ4sYm05fP6+eXkRWzCxyguboU5GYwfccyoTEOBBeW6Lh4H3ZbY6MZBrg2isDCHVv5uF6x4LUuvsUSE8w8qRrHl5OFkwycZaqiYiGoENMGw/auGIbzjC3ZKtGcZfb3abI80p/RHL/SdF3DIHzdrQSTQRZ2bKWn3pLtdWEZ/+gS/u1Ow72ZMdfjZg41lqiZJxVZ+NyzqLtQO43ZfY3HLfi5HEmZspFkIWGMcf1GaLujvheDNYitt0luFod2Ow11F769WxeGO74KZnvT9y346bgIO1XrUN+lIS7mBPdpilFXlGulJ5osKq7iM9tLaC1TLN19YytBuR4b5/Mbi2EssYIZV32XHnDRekx5iVpHofUtdZSuJEnbB1Dlsu3OY4PxwBIdX/mZBnYd0KyEQ/tc4/fp7dEsfWwSMmaw6bdr/3cO/7mvyPben1lgfEEQBEEQBMGOLN1Kxe8d4eAIuMud7N9eSmuk2ERj41TZWQcsLONnSc+8ZD2F0VLdN2pOuhJJARbzs7QGwzsc9CwCi2gDcifL9A6ExgSLzDK+G/dtAvAqrnl12ajBzA33mpuBc34J3/wyF3Ul32POdYzjNISfMCk9koIkkYU7fi6zCKiKN2M27e2Kaiw4CQlVKCk8ZnB0CeaXmBmJZOH1mHPnhzmXm8WhcgfML0U4diPJwlqwSNtXK0qygTnFs8FkPa+6KocwtwJqyAF98hqGKc8wb89v5cB2YPS+oe7UrN8obkveuccw5tQzy7Wd9+Nzl+LKdnJgxxBtl7IYqM/E6Xbi9mzEMDBKoghAV1p75wgqxctKOVPmtAkpArDIL2NOXGUOPX6fHX6v3/JepY7Sl/Vs+zDl8dOLcp5Bj2GB5s4ivVUZuMhg/4ESdeMy/oUVfBcjLDqUBS3//d4R82KL8fszvxzTwoVYggmCIAiCIGwoFOuhKdt4bYCaBdBuv+4WN7eiTJhsKNyRpcReMlkmbeZQo1ONgaMpRLQshuGyCm6mcEeGzbkSRQ0aPWd091P2hH0naUsUWbDDTj7UbYRYqtlTmLsZrOeIdp8iC2uC1j7DZo9bS6xyEaFvCb77xxsv7pT2njRibEdrem2po7Tnmbb9tSJXdX+fW9GVdlbZ1L4nVrmMZAkmSjBBEARBEARBEARBEAQhLYikBPtfz/heBEEQBEEQBEEQBEEQBOGZ85dff/2VJ0+e8OTJE/7880/9b+0HihZNEARBEARBEARBEARBEFKVv7z88ssRD7h27Rp7/k2UYIIgCIIgCIIgCIIgCEJyc/1/5sPuE3dIQRAEQRAEQRAEQRAEIe0RJZggCIIgCIIgCIIgCIKQ9ogSTBAEQRAEQRAEQRAEQUh74laCzfa4Kc17LurvjZ6p0MIzp3lj72lmLeezPVZYO2ZO80ZeC7eiHHNh8Fnd0LMlVpnVf8f61/uWhZjp55NIsj1zmjei1rmbCzPGQlNc2BvcZt9Hma9761gc8iUyJgiCIAiCIAiCsC6syhKs7vwfjM9qvx+p402+nTVsO/9m8OBYFDBpROhk2DrBBmWSbTnOohzUzxVxshzbecg/TEfb75y2VTaq53j1Kp7p9JyY5x30GuRV+fW3vURF23DI9vHZPxg/Ub3et5wGRFJO9fNJBIWQqQ0Z5Nle0fQ6vXzPW+EU8fmH+UGt12/3W/uuPxi/+SUVvEBBfvgnyTvYTc3PzTbtOMgrJ0Ll6Nv9iIw9K6zKznD9aaR+UlgnLN8x6zdvsCW2RTZBEARBEARBiIG/rKZQb+Nz9Fq35X1v+n9F2zvKH/mH+eGmYgGW97Wy6V/HnuOLy6ajKW1X/3zxS/qvHiZvNTeWJFS0DfPDwUJAsSKpfrWFgtkuXgFlsvbqhwzv/5Hxq8GJ8GyPm+q8q3x000tDhAm5ToznuXXsOd7S33UFpRM/qhPwfj7Je51eVMXArrV59qRFe1+mjQa5U6k7/wefpvu7eMrM9ripbr8NvIk7ZK8idw/ahhlX24iRW8ee463xL+mfPUweU1zYW0H1sSLGT1QriqYTdue7jltrX3Fyq/tDaBuOUraQhr+/QGl3Pw2ivEpCprjw7jiHZ/9Q69EsNxBZroT15daxZvj6D8bzQesf3igOfkOBtBgXbGRmZ/qZ/eck0wVF/HVXdWg9zvRzaxqgkFd2hX4X4imft6swipxMceHYDf56wiBPCZZP9PmE6CS7DM3O9DMbcx3byKB2D1Tzit0cIAVkKNnrSNq5ICQpq+z7Zgf7mS0wlJuZYjY/WtsO8vQtwUBRhH0NraoS4q8nIljkpNlAN+/gB9TxPd5BUCZrquLKMvnKO+jl2/23+eLdWCwUYj9P0EJlmI9ehLrqanVl/Tpu9Z1vGKXPi1/Sb2eVY5BFITFuHXuO6okPVAsru/2v07v/R/MEV6cf7+WX+OhrrQ8opOHrL6m4fN1gUWaxIrO1BLOzvlTo7TdamSjXq/n3GAYru97ho/NZQQYAABpsSURBVPF/mM/7Ymla9VWpSyENV41K0EIa/v4m6HITi1wJ68UrJ4wLP9W495v3z07/DqVF0tZSlFvH3FS/+g9OT4wz9c3rVFsthAdbKH31H5zuv87pbypsLIMjl59Vy3v7r+P9piL0/FYG/5upasPENsHyiT6fEJ1kl6Fbx56j+t1g+aiWxpbyCv188urrnP6njZVrCshQsteRtHNBSFZW1/fN9rhp7b+O911DaJp/3ojryk/fEgzVMuTnvfTf/JLWd1EeqtF4fNAiJ60tcWZu4PntJT762t764JXmL6l49Sr/mjkc2RpsFeeZ7Wnmi9IfVYuvLsatX+jBFkq/KU3v1fbfPqQ678OIh9Sdf0b3kqa8cuIPxgFmJm32qsqIm2Gsbwav08sLfGuU/fwiSvgQ72AXr2j9QkSrkCku7G223T49Dvx2nVsnqhWFyeB1erkNrz7HF0TrewppuOoN/ndmkgfhDjXyczOl7bfTu19LQmanf4cX9yoyEqtcCevPzGlOX36Jmpuyip4WDLbw1uUX+PZml7pS+w6Feys43fMOrxwsBPr5pPF7Q/+4h0/yXueTavX/MZT/rvF3gwW9db+Vfj75ppS/XQ3+P6HyiT6fEJ1kl6GZ05y+/Cbf6tboSvnvBg+HqWOrDGLyVAhdPEwBGUr2OpJ2LgjJSQJ93+zEbUqqvbh5ThnLF5zGW3CYT+O4/BpYgtn8jJZggy2KZYh10hrGKifdOozZnn/Q++KX/G0XMD3OcKT4Q/lFlHCbqekoJ433PIMtVLfDR83VtkG+bx17jtJG+Pbr3bE/WCoilmDry8wkD3iBgumW8FZbT826aoqp397k2/MEY+Pt6jLEBXsTdzx9z/Q4wzFYpwyXfsD4+TfpbZRg+M+Ofr5rv03Ff+wO1o9Y7SUxBuvOV8c5PGsOCTA7cRsuvy5JJVKRXe/Qf/MdexcHUBXUxr5XsQR8MD0VW3mq+dvN7thCSKCMx/i7cSyaYPlEn0+ITtLLEHF9X+zK3/rnODU3lTiiIaSCDCV9HUk7F4RkZC37vlv/JL55HKtQguUd9JoUVbaZ03Z16e5Ot/q/Dw5gX/2Q4d8+pLrxe9UqxybQdRoELB5ur9Cfp/rnvXFaV71EYcFa3IV6npnTvNH4PXCbqX+epvXnvXQY4pWV5j3H6eJhxme7eCUOP9qUJJzMaXXVfnu973AD8D1v9e8xKB7hi1cjmaUXUviiZVPEeqzgi99sTjMzyYMXS8nb9U5IkHslLtg7ccUUm53+nYri6NYqFcWFqrJtmI/GX6d0AyUJWRcGWyhVY87Zu9xq2MiVsE5U86meqKKU05bA9+akEz9Sd/l1UYSlDIXk5RvaoWrFrrmgKxabZgVCXvFLDE9MxVQeMO2fHfxvvvjtTQ6Hse74buKDkIXWxMon+nxCdJJchvKLKPntQ1p7+pmdmeJWTzNf/BZuUc1eBl852BVWQZMaMpTkdZRweWnngvA0SKTvyyt+CZhC0Xf0M83uuGNDx+cOGeLGqBEaYBxU8+CQYNZKIGv2g/vE6oJZJzsV4SZgBaVUcJXpGcIEf1MsZdzRViviOM+tYx9Scn6Ymm8q+KL9Q9j/I3laUPz9PzI+u0ECQ+cf5ofZw0qAbEJjqQnPipf4qDn47vMOfkBd++uKKSvAb+PMgqHTm2LqN4tiWHWHpMfNdwWKUn5W/9veHXL2n1cZLv2APC3I/bun+evVw+QNtvDW5Tf5djYe96t+vmsnTpetQhqu/kHDYAule0+nt9vxOqEkAXmJj27+EfpRjUWuhPUn/zAdbVep/vkGswft2kg1n55/k95Gg1uzkDLc6lZimf5gbJ9xxHuzLQ8YE/1UhEl0cuvYdQqbu8KcOdHyEe5P4tmtKcknQ9X8re1Nqttfp1oP69K9ahmyJcVkKPnqaK3KR7i/FKsjQUgJIrSrvIMfwN5mTpd+wOF/Xod/f4dbg/3k2SWtCEN8lmCa+1CkoPjadjvzYD0gexefntjDtL7aq7hDpH3a8/zd1Lx4G49d8De0jnVP9IF9HOd55YTmYvoSH91UrFE+GVRX3i2KoFvH0tjVZOY0b+SpmTKNrjWW3yeD632jaUx+ESWR9heUUsHvTBvdIzUXSkPg7E+vKhn+/vUzNkoMJXZXw3SLQZan+NfPt5WkEAC7uuj/j6tU73XzRuP31J2PrIy/dcxsoXrr2Ov0cpsvulfRVnZ1pV3yj2QgmP3RJrtuTHIlpBTi3ppyzPa4lQWHVS5ARS6vjmlufgntFaHf8ZnTnC5+J4I7VKLlE38+ITpJKUODLVS3/85H59UEXzd/hMaK0PlMDDKUDiRlHa1ZeWnngpA8VPPpVS8/nIBp9kB3M97+67TG4VG4qphgClNc2Ps6D2JyI1JjfjR+D7qSp5q/0qwqH5RMhZHdV9IBJSsZ7aEfSMWKIdaOdbXnUaxRQuOuKfWTrhZSt45psWbU+E/W2GBqJsOKtuG0i0mXXFTztzZMGVBne/4R9PnOP8zh/UblkpIF1dZVcfC/+YK9/DWGAeVsTzNfoMbl07ZN3IbfbjP8onl7kNt88aqiGH1rPBiIP6hs+YNveT39FfepgBpMPZj90UI8ciU8Y/r5xDRgscZzm+LW4JT5+MbvzfHehORn5jSt7fDRTfOCQ17BCzA+GX3AGqZ8CPmHObzfmgV4igvd42Fcn9aofKLPJ0QnSWVodvp32P8BDbvUffnV/K3N6goXhwxaSCkZStI6WrPy0s4F4ZkRa7ua7ZmEfwfv5Rdwn9hDier5EQurU4INtlCaV4HnP8K4/Q1ep1c1Ybt1LKjkUgLmT3JhrzK5/K7AqyogLKv06Uz+YX6YHabm5wqTBdJb/KjE5bIeb7Va0iYM8Z4nDEr9vA7nQy3D0gUlpoz6TvIP88PX0Gp8p+9Cx4ZQwq4/eQe9fFsajOlV3f6CIasSvHJCi52lxvcq/TGkXmZ73EoiB4tFlTFYoh6zSxu0aAqSwRZDO/mDcVUWTMqsmRt4fjMkALl6mDzNkpAfdUuuV078SIndaqKwDgSVlnaWnbHIlbAeVPPp38cNMf6Ub1GwbgrJm2421Gks8d6EpELN/lRy3sZKc9ce6n67yr/08Z/FajdaedW93DrgNcVrHPxvporDKLwTLb8WzydEJ5llKBYSKZ8qMpTMdSTtXBBSj5ja1RT/mihatYVtXDHBZnvcSvDw/YqixXgTF/YaA1K/xEc3lf3GmGCz07/D5d/h5h+M6zd8mB9mdyuKsd9Qzp3CyphXTvwRw4dOjQ8Uw7nM8dRWd55QDPW1EeKCGVKwAnqWSF2BoipGdFJcBpOC/MP8EEYVH1muw8u0YuWoWOyNW2J45f37XnjVGJvwJT66WagGvR+mIV+VeSx1r8aKU5JEqH3bCWWbhtLvwUc3/7DEqKjm05tf8sa7p5ndJS6O60a+ub7sWW1fKTx1dnVZxhNm8g56GT/4DO9HWEP6+eTVDxl+8UsO088tbcGgoJBX8gtRsj29zlvvtsDf90D/P/jitzf5dleM5Xe9w0ffVFC9F779exH0/0ONC6h9H6a48E0pf7saRmmaaPmEn0+ITnLLUF7BC9D+Om8U/8jhAmD6Oqfbb1N3vjqm8tFJBRlK7jqSdi4IqUgM7WrwBjQfBqaUZFczxBUuY9OjR48CkQ64du0af/0//3eVDyAkB2qw8K+9NKAohJDVdEEQBEEQnhYzp/mkezx0e/E7fGoYf8z2tND68+/AXg5/fTiY8Cem8lPcOtbM6XGAFzj8dZdefranhe8KuqKEOUigfKLPJ0QnBWRodvA0331zlQco5Wv+/o7uHhmbDAav9a+CYFnrvqSVoRSoI2nngpC8rLbvu9VzmryDQU+fN775nZK/e01t+fr/zPOf+4psrytKMEEQBEEQBCG9mJmC/AQW+xItL6Q+IkPJj9SRIAhhiKQESyAwviAIgiAIgiAkIYlObGViLIgMJT9SR4IgrAJRggmCIAiCIAiCIAiCIAhpjyjBBEEQBEEQBEEQBEEQhLTnL7/++itPnjzhyZMn/Pnnn/rf2g8Uf0pBEARBEARBEARBEARBSFX+8vLLL0c84Nq1a2EDigmCIAiCIAiCIAiCIAhCsvBfVybD7hN3SEEQBEEQBEEQBEEQBCHtESWYIAiCIAiCIAiCIAiCkPaIEkwQBEEQBEEQBEEQBEFIe+JWgk12VbJp06aov8ouGx/MyS4qK7uYtJzP9lhh7ZjsonJTM54ox3RFPCB1iVVm9V9zmr6ItMRDcyTZnuyiMmqdV2Lugibpqgxus++jzNf1NMchXyJjgiAIgiAIgiAI68KqLMGa+gIEAtqvjyaa6AsYtvU1BQ+ORQGTRoROhq0TbFAm2ZbjLMpB/VwRJ8uxnYeiFi503uUzW2Wjeo7iK1x5kJ61VNQyZJBX5TfR6cLVORGyPRAIEOiuWe9bTgMiKac8NEdQCJnakEGe7RVNtZzlLLXhFPFFLQyp9drXZO27AgQmOnGxjZIIuT+KWi6w70qDTTsOUtMdKkd9TYiMPSusys5w/WmkflJYJyzfMes3z9Mc2yKbIAiCIAiCIMTAqpRgZ2ujTEJrzwYPLmphaOJ5PjNMOq4bJiPFR3z4jhSn1eTEOPGd6IQjxQZlwGQXlZuKObKtz6yU2XeFYluFWRhiPI828dPfsz7B0BQRxdw7HiAQGGKoJY0n5pZJcojcqT8x0EkcxfKulrO2ez00b6rlrlE5ZFAIeZo3UXu3k4lAgEBggk6OUKxWip2iyVYJr/6GWqJntfWcPAKd7xNZ8otoOb6NIydFOJKTSboa7nFcr3uz3EBkuRLWF09zA1wwtOeztaFKLpdWd7G3bSF5mJz04OnqosvjsR/fTXrweDx4PPYDoHjKRx9CTdLVbBlnJlg+0ecTopPsMjQZVx3byKB2D+GKp4AMJXsdGfdFf4/pWUeCkHREa9cR2tWkx9IeJ2PpGww8evQoEOnX3d0dMDLR6Qo09Rm39AWaaAqYNzUFXJ0TAUvBgAsCuDoDE6bNrtBjU5i+JizP0xdoAvWdTQQ6XQQwv0BTWeP76WsKd2x85zGWaeoLBAJ9TQGsdZbuTHQGXCHvxHqIVbaFeNFldqIz4LKRsfAyHQgobcUV6DR3EJbzKO2JiD/LOcJe2+Z6ykUDnS7rduu2vkBTFHkK7QuEZ4apj4tFroRkwdpuJjpdEfoMIdnpa3IFwBVwNTUFmlyEjj36mvT9LptxTbTyE2r5pnDnD70h03c+0fKJPp8QnWSXIWXMbSgfZWxgLa9uDDQRZsyQAjKU7HVk3rUx60gQko2o7TpCu5ro1PqLYJm+ztB2/XVv+Ja+KiVY5Amo8gsZxLo6AxOaIqKvKWy5VO83IirBJjoDrjAT9EAgdH9YhUGc51E2RZlI9DVF/yikMpoSNsov1eUvabBVMoRTOmm77ZSzRiWy+v+IcmqnwNK2WzpYSz8UvEa4c1ieLxYlmMslcrUO6N+cQCBGuRKSgtV8u4TkRWt7en0q/XBwjGTTvxv/H1N5o7xY94fckOX7kWD5RJ9PiE6yy1DIWMew4BxLef0coXOnmJ4vGUj2OjKgz2Ejjt/SsI4EIemI1q4jt6u+JuVv7d/ARKdtm4ukBFuDmGA2P2NMME8zxfeOExhqweTAYHFv0H7pFipnsuszzro6eb8GmLiHL1L8oaIStuHj3kSUk8Z7Hk8zxUeg8/0a2yDfnuZNbKqFvgt7Yn+wVCSMzGm/iU7Xet9hejP5gLtso2TCGOPH4gLsep7ip3LxCe75mujrIxgbr6bbEBesidfi6Xsm7uHbVkI0pyzftuME+poUF3Jxv3tGeDh5xIdr355g/Tw1uRISxxAjsPgexwNDGL0dJ+754GytJJVIRWreZ2LifWrCdZSenzhr6ntreK0J7j6YjK08Nbw/cYFYvWMnuz6D48axaILlE30+ITpJL0PE9X2xK++5fo99E0oc0RBSQYZSoY6UHTQcgc5OuxcduXzK15EgJB1R2nWc7cpznfjmcawiJlhRy5BJUWWbOa2mW4/Z4fnpbHAAW3wEn+8IxbVnwXeEYrusaWkQE8wYa6r4yj4mrArAiLh4fk1ma+p5JruorD0L+Lh3vYuGK/u4oNaNljXxs+cnCAS6qSkqiuM+U5BwMmeIEyY8bc5S+9Nr4WPmhVDM81bdZMR6LMa2GicfcNf1PMU174cEuY8tLpj1dHdxxdBQXc8Xq8q2CTrv1rJpAyUJWRc8zWxSY85FjhtlI1fCOlFDt56o4nk+swS+N8cCVGKGiSIsVSiiqMjQDievc8XnYt8edQzy4G6IAqH4eRc+fQUvcnnAtH/Sc5IjviaO27Z9DyfvHQ9ZaE2sfKLPJ0QnyWWoqIRtviM0dHmYnJzE09XAEV+4RTV7Gaxp6Q47EUwNGUryOlJK0dVwBDov0FIS6VnStY4EIfmI1K6jtavi513AJIq+w8MD9sQ1j4N4lWA2WZrCBRjXJnuhwayVQNZNTfbBrEMsxlIQU0Y44/MUP4+Lu4RdHNAsZaK9gDjO4zl5hG19E3S64OyRI6r1irLyXnzv+MYJMqxmCexrApr6wlqDpZslYvLhovP94EsuajlOE2f5SZvT+u5hHjZMcM9nUQyrFn0TnS7dKjX4tyLrViavX1FlXw1y36Aq2z3N1J4NN5gKh4eTRzAN0KJTRMtQgEAf1KaBoj8ZUSxa79I5YdOnxSJXwvpT1MKFThe+K9fDtJEauvua4OxPokxOQTwnj+BrOm6eTMZgURuxvLJHGdPUnsUVZkHD0/wTz78f7gOfaPkI9xfH8wnRST4ZquH9ziZ8R2opLi6m9oiPpr7Vy5AtKSZDyVdHMNnVwBE6dSOAsNfeIHUkCMlDhHYdoV0VtRyHzxr4jOOUXP+Jkj3gCZdUIwzxKcE096Gomdn6aLIzD/Y0s2nTT7wW6Ka7+zUe6Ku9ygtI+7TnRXvY5/Jx5XoYU76TR/A1vRZdkxnHeWq6NcWOi84JxRql2aOuvFs0Pp7mNHY1UbND1p7F7Foj2SGfHUUlbIu03065G6IYrqF7qIUiJrl+BRslRhEtQ0O0TDQbZHmS61d8NGlLszXdShbVykoqa8/S1Ncdsc15ms0Wqp7mWs7iW122yJrutFD0JxvB7I9DoQPnmORKSCnEvTXlmOyqpPZsE32rXGmKXF4d0yimxaHf8ckuPnv+/QjuVImWT/z5hOgkpQx5mik+cpfOPnXxe6IPaotD5zMxyFA6kJR1NNlFw5Ft9EUbe22QOhKE5CJKu45UbmiIoW54wGtwsoGffvqJhjgMDVYVE0xhkq7KWu7G5EakxvyoPQu6kqeGPTSoyoefeG1DWCQV0XJBqWS7uFyxfzhWex7FGiV0l1I/tfSFKMbSAU+zFmtGjf9kjQ020YkLxYIvDR8/iajh/U6CVlioMfM0n++iFo43GZVLmvm6TR/jOckR9hGLMZa2Amhc3Ju45wOfD5/LvD2IjyPFimK09m6n7tIcVLYE6KM2/RX3qcBkF5+dddF5IcwANx65Ep4xHppNAxZrPDdrKnsPzbVnzfHehORHi8UzYV5wKCrZBncfRB+whikfQlELx5vg7E/GUfQkXSfvxWbtu9ryiT6fEJ0klaHJB3eh6TgtWkCrohre77S6wsUhg9bbSSUZSso6Ur73Phf81NxMc3MzzZ/dBd8VTjZ3Efy8bJA6EoRkxdKuY21Xk10PYA/8dHYbr3W/xrYQz4/wrE4J5mlm06ZiruwLE3fF8xNnVRM2T3NQyaUEzH9AV6UyuTxZMqQqICK49qUbRS0MBSbYd8XsQlpLnxKXy3q81WpJmzDEe54wKPVTC32hlmHpguKSq76TohaGLkCD8Z02wIUNoYRdf4pahujbFozpVXxkG30Gea3p1mJnqfG9tvWF1MtkV6WSyMGyqmcMlqjH7NIGVZqCRHXpVtpJgIAqCyZl1uR1rvgMCUCGWijSLAnp0y25arr72BbXqoXw9AgqLe0sO2ORK2E9qKH7+D1DjD/lWxSsmyKKHzQY6jSWeG9CUjHZRWXxEbb12Vhp1rxGk+8K1w0TUZPVbrTynmbbOLKmeI2ek9x7PozCO9Hya/F8QnSSWYZiIZHyqSJDSVtHRew53kff8dd47TX1tw9wbeP510ooLopWPgZSpY4EIZmI1q5jaleTXL9XsnrrzUePHgUi/bq7u/VUknpq2ZAclEpaS9B+5hTn5vJ2+wzlJafsU2Ai0OkKTUO6Yd63IbUxdqmR+5oMsrtB3kkK0tcULj11ILSO1X6mr0k7XpX5aGmzbeo+fL+lXjfMOYPXFgRB2IgoKc1xdQb6+vqCv4lgv9jXRABXU6Czry/Q2eQKQFOgL+bywX69r68v0Ndk7asnAp1h+ue1KZ/o8wnRSXIZUsePrk71vJ1NARcEgkOJaDJkPJX9mCH5ZSjJ6yjkdpssY8GNUEeCkGxEa9cxtKu+TvX4iUCnqynQN9EXaLK05a97w7fsTY8ePQpEUpJdu3aNpqbI6WSFZGeSrsoGuDBEC8pqC7KaLgiCIAjC02Kyi+aT90K3P/8+3Ybxx2RXMw1X7gL7OH6hBc2zLLbyk3iaG/jsLsA2jl/o1stPdjVzsqQ7SpiDBMon+nxCdFJAhiY9XZz87Ap3UcrvO/6+7h4ZmwwGr3W9JFjWui9pZSgF6ijkfq+X8H5LDUVxlk/ZOhKEpCR8u9aPiNCuPF1dFLcEPX0qP7vLtuNDprb8X1cm+c999o1RlGCCIAiCIAhCejE5CUUJzEQTLS+kPiJDyY/UkSAIYYikBEsgML4gCIIgCIIgJCGJTmxlYiyIDCU/UkeCIKwCUYIJgiAIgiAIgiAIgiAIaY8owQRBEARBEARBEARBEIS05y+//vorT5484cmTJ/z555/639oPFH9KQRAEQRAEQRAEQRAEQUhV/vLyyy9HPODatWvs+becZ3Q7giAIgiAIgiAIgiAIgrA6rv/PfNh94g4pCIIgCIIgCIIgCIIgpD2iBBMEQRAEQRAEQRAEQRDSHlGCCYIgCIIgCIIgCIIgCGnP/weCksI09WTr5QAAAABJRU5ErkJggg==;" vertex="1" parent="1">
          <mxGeometry x="1.5" y="270" width="1217" height="71" as="geometry" />
        </mxCell>
        <mxCell id="uFrEVuctdgkB2kQyFH12-25" value="导入期需求量= 导入总量+要退量-在库库存" style="text;html=1;align=center;verticalAlign=middle;resizable=0;points=[];autosize=1;strokeColor=none;fillColor=none;fontSize=16;fontStyle=1" vertex="1" parent="1">
          <mxGeometry x="15" y="368" width="320" height="30" as="geometry" />
        </mxCell>
      </root>
    </mxGraphModel>
  </diagram>
</mxfile>
